<mxfile host="app.diagrams.net" modified="2023-12-01T15:31:34.175Z" agent="Mozilla/5.0 (Macintosh; Intel Mac OS X 10_15_7) AppleWebKit/537.36 (KHTML, like Gecko) Chrome/119.0.0.0 Safari/537.36" etag="AkP9Cylxi96njOv2WSuf" version="22.1.4" type="device">
  <diagram id="C5RBs43oDa-KdzZeNtuy" name="Page-1">
    <mxGraphModel dx="1434" dy="907" grid="1" gridSize="10" guides="1" tooltips="1" connect="1" arrows="1" fold="1" page="1" pageScale="1" pageWidth="827" pageHeight="1169" math="0" shadow="0">
      <root>
        <mxCell id="WIyWlLk6GJQsqaUBKTNV-0" />
        <mxCell id="WIyWlLk6GJQsqaUBKTNV-1" parent="WIyWlLk6GJQsqaUBKTNV-0" />
        <mxCell id="aSojN3mxSNMVksjIEIrh-1" value="Versiyonu tespit edilenlerden eski versiyon var mı?" style="rhombus;whiteSpace=wrap;html=1;" vertex="1" parent="WIyWlLk6GJQsqaUBKTNV-1">
          <mxGeometry x="540" y="482.5" width="140" height="80" as="geometry" />
        </mxCell>
        <mxCell id="aSojN3mxSNMVksjIEIrh-3" value="Hayır" style="rounded=0;html=1;jettySize=auto;orthogonalLoop=1;fontSize=11;endArrow=block;endFill=0;endSize=8;strokeWidth=1;shadow=0;labelBackgroundColor=none;edgeStyle=orthogonalEdgeStyle;entryX=0;entryY=0.5;entryDx=0;entryDy=0;" edge="1" parent="WIyWlLk6GJQsqaUBKTNV-1" target="aSojN3mxSNMVksjIEIrh-5">
          <mxGeometry x="0.0213" y="10" relative="1" as="geometry">
            <mxPoint x="680" y="522.5" as="sourcePoint" />
            <mxPoint x="730" y="522.5" as="targetPoint" />
            <mxPoint as="offset" />
          </mxGeometry>
        </mxCell>
        <mxCell id="aSojN3mxSNMVksjIEIrh-4" value="Evet" style="rounded=0;html=1;jettySize=auto;orthogonalLoop=1;fontSize=11;endArrow=block;endFill=0;endSize=8;strokeWidth=1;shadow=0;labelBackgroundColor=none;edgeStyle=orthogonalEdgeStyle;exitX=0.5;exitY=1;exitDx=0;exitDy=0;" edge="1" parent="WIyWlLk6GJQsqaUBKTNV-1" source="aSojN3mxSNMVksjIEIrh-1">
          <mxGeometry relative="1" as="geometry">
            <mxPoint x="610" y="572.5" as="sourcePoint" />
            <mxPoint x="610" y="602.5" as="targetPoint" />
          </mxGeometry>
        </mxCell>
        <mxCell id="aSojN3mxSNMVksjIEIrh-5" value="outdated = 0" style="shape=process;whiteSpace=wrap;html=1;backgroundOutline=1;" vertex="1" parent="WIyWlLk6GJQsqaUBKTNV-1">
          <mxGeometry x="730" y="505" width="140" height="35" as="geometry" />
        </mxCell>
        <mxCell id="aSojN3mxSNMVksjIEIrh-6" value="outdated = 10" style="shape=process;whiteSpace=wrap;html=1;backgroundOutline=1;" vertex="1" parent="WIyWlLk6GJQsqaUBKTNV-1">
          <mxGeometry x="540" y="602.5" width="140" height="35" as="geometry" />
        </mxCell>
        <mxCell id="aSojN3mxSNMVksjIEIrh-14" value="active-content.py çalıştır" style="rounded=1;whiteSpace=wrap;html=1;" vertex="1" parent="WIyWlLk6GJQsqaUBKTNV-1">
          <mxGeometry x="110" y="92.5" width="120" height="40" as="geometry" />
        </mxCell>
        <mxCell id="aSojN3mxSNMVksjIEIrh-16" value="" style="rounded=0;html=1;jettySize=auto;orthogonalLoop=1;fontSize=11;endArrow=block;endFill=0;endSize=8;strokeWidth=1;shadow=0;labelBackgroundColor=none;edgeStyle=orthogonalEdgeStyle;entryX=0.5;entryY=0;entryDx=0;entryDy=0;" edge="1" parent="WIyWlLk6GJQsqaUBKTNV-1" target="aSojN3mxSNMVksjIEIrh-34">
          <mxGeometry relative="1" as="geometry">
            <mxPoint x="170" y="132.5" as="sourcePoint" />
            <mxPoint x="170" y="192.5" as="targetPoint" />
          </mxGeometry>
        </mxCell>
        <mxCell id="aSojN3mxSNMVksjIEIrh-21" value="Gelen teknolojileri listele ve teker teker güncel versiyonları kontrol et." style="rounded=1;whiteSpace=wrap;html=1;" vertex="1" parent="WIyWlLk6GJQsqaUBKTNV-1">
          <mxGeometry x="495" y="360" width="230" height="60" as="geometry" />
        </mxCell>
        <mxCell id="aSojN3mxSNMVksjIEIrh-22" value="" style="rounded=0;html=1;jettySize=auto;orthogonalLoop=1;fontSize=11;endArrow=block;endFill=0;endSize=8;strokeWidth=1;shadow=0;labelBackgroundColor=none;edgeStyle=orthogonalEdgeStyle;entryX=0.5;entryY=0;entryDx=0;entryDy=0;exitX=0.5;exitY=1;exitDx=0;exitDy=0;" edge="1" parent="WIyWlLk6GJQsqaUBKTNV-1" source="aSojN3mxSNMVksjIEIrh-21" target="aSojN3mxSNMVksjIEIrh-1">
          <mxGeometry relative="1" as="geometry">
            <mxPoint x="609.5" y="432.5" as="sourcePoint" />
            <mxPoint x="609.5" y="515.5" as="targetPoint" />
          </mxGeometry>
        </mxCell>
        <mxCell id="aSojN3mxSNMVksjIEIrh-24" value="" style="rounded=0;html=1;jettySize=auto;orthogonalLoop=1;fontSize=11;endArrow=block;endFill=0;endSize=8;strokeWidth=1;shadow=0;labelBackgroundColor=none;edgeStyle=orthogonalEdgeStyle;" edge="1" parent="WIyWlLk6GJQsqaUBKTNV-1" source="aSojN3mxSNMVksjIEIrh-31" target="aSojN3mxSNMVksjIEIrh-21">
          <mxGeometry relative="1" as="geometry">
            <mxPoint x="610" y="260" as="sourcePoint" />
            <mxPoint x="610" y="360" as="targetPoint" />
          </mxGeometry>
        </mxCell>
        <mxCell id="aSojN3mxSNMVksjIEIrh-25" value="technology lookup çalıştır" style="rounded=1;whiteSpace=wrap;html=1;" vertex="1" parent="WIyWlLk6GJQsqaUBKTNV-1">
          <mxGeometry x="550" width="120" height="40" as="geometry" />
        </mxCell>
        <mxCell id="aSojN3mxSNMVksjIEIrh-26" value="Teknolojiler arasında PHP, Js, .NETvar mı" style="rhombus;whiteSpace=wrap;html=1;" vertex="1" parent="WIyWlLk6GJQsqaUBKTNV-1">
          <mxGeometry x="540" y="100" width="140" height="80" as="geometry" />
        </mxCell>
        <mxCell id="aSojN3mxSNMVksjIEIrh-27" value="" style="rounded=0;html=1;jettySize=auto;orthogonalLoop=1;fontSize=11;endArrow=block;endFill=0;endSize=8;strokeWidth=1;shadow=0;labelBackgroundColor=none;edgeStyle=orthogonalEdgeStyle;entryX=0.5;entryY=0;entryDx=0;entryDy=0;" edge="1" parent="WIyWlLk6GJQsqaUBKTNV-1" target="aSojN3mxSNMVksjIEIrh-26">
          <mxGeometry relative="1" as="geometry">
            <mxPoint x="610" y="40" as="sourcePoint" />
            <mxPoint x="610" y="100" as="targetPoint" />
          </mxGeometry>
        </mxCell>
        <mxCell id="aSojN3mxSNMVksjIEIrh-28" value="Hayır" style="rounded=0;html=1;jettySize=auto;orthogonalLoop=1;fontSize=11;endArrow=block;endFill=0;endSize=8;strokeWidth=1;shadow=0;labelBackgroundColor=none;edgeStyle=orthogonalEdgeStyle;entryX=0;entryY=0.5;entryDx=0;entryDy=0;" edge="1" parent="WIyWlLk6GJQsqaUBKTNV-1" target="aSojN3mxSNMVksjIEIrh-30">
          <mxGeometry x="0.0213" y="10" relative="1" as="geometry">
            <mxPoint x="680" y="140" as="sourcePoint" />
            <mxPoint x="730" y="140" as="targetPoint" />
            <mxPoint as="offset" />
          </mxGeometry>
        </mxCell>
        <mxCell id="aSojN3mxSNMVksjIEIrh-29" value="Evet" style="rounded=0;html=1;jettySize=auto;orthogonalLoop=1;fontSize=11;endArrow=block;endFill=0;endSize=8;strokeWidth=1;shadow=0;labelBackgroundColor=none;edgeStyle=orthogonalEdgeStyle;exitX=0.5;exitY=1;exitDx=0;exitDy=0;" edge="1" parent="WIyWlLk6GJQsqaUBKTNV-1" source="aSojN3mxSNMVksjIEIrh-26">
          <mxGeometry relative="1" as="geometry">
            <mxPoint x="610" y="190" as="sourcePoint" />
            <mxPoint x="610" y="220" as="targetPoint" />
          </mxGeometry>
        </mxCell>
        <mxCell id="aSojN3mxSNMVksjIEIrh-30" value="dyn = 0" style="shape=process;whiteSpace=wrap;html=1;backgroundOutline=1;" vertex="1" parent="WIyWlLk6GJQsqaUBKTNV-1">
          <mxGeometry x="730" y="122.5" width="140" height="35" as="geometry" />
        </mxCell>
        <mxCell id="aSojN3mxSNMVksjIEIrh-33" value="" style="edgeStyle=orthogonalEdgeStyle;rounded=0;orthogonalLoop=1;jettySize=auto;html=1;" edge="1" parent="WIyWlLk6GJQsqaUBKTNV-1" source="aSojN3mxSNMVksjIEIrh-31" target="aSojN3mxSNMVksjIEIrh-21">
          <mxGeometry relative="1" as="geometry" />
        </mxCell>
        <mxCell id="aSojN3mxSNMVksjIEIrh-31" value="dyn = 1" style="shape=process;whiteSpace=wrap;html=1;backgroundOutline=1;" vertex="1" parent="WIyWlLk6GJQsqaUBKTNV-1">
          <mxGeometry x="540" y="220" width="140" height="40" as="geometry" />
        </mxCell>
        <mxCell id="aSojN3mxSNMVksjIEIrh-32" value="" style="rounded=0;html=1;jettySize=auto;orthogonalLoop=1;fontSize=11;endArrow=block;endFill=0;endSize=8;strokeWidth=1;shadow=0;labelBackgroundColor=none;edgeStyle=orthogonalEdgeStyle;entryX=1;entryY=0.5;entryDx=0;entryDy=0;exitX=0.5;exitY=1;exitDx=0;exitDy=0;" edge="1" parent="WIyWlLk6GJQsqaUBKTNV-1" source="aSojN3mxSNMVksjIEIrh-30" target="aSojN3mxSNMVksjIEIrh-21">
          <mxGeometry relative="1" as="geometry">
            <mxPoint x="620" y="270" as="sourcePoint" />
            <mxPoint x="620" y="370" as="targetPoint" />
          </mxGeometry>
        </mxCell>
        <mxCell id="aSojN3mxSNMVksjIEIrh-34" value="Gelen sonuçlara göre active parametrelerine atama yap" style="rounded=1;whiteSpace=wrap;html=1;" vertex="1" parent="WIyWlLk6GJQsqaUBKTNV-1">
          <mxGeometry x="110" y="200" width="120" height="70" as="geometry" />
        </mxCell>
      </root>
    </mxGraphModel>
  </diagram>
</mxfile>
